<svg xmlns="http://www.w3.org/2000/svg" viewBox="0 0 841.81 907.97"><g id="Ebene_2" data-name="Ebene 2"><g id="Ebene_1-2" data-name="Ebene 1"><path d="M204.24,0c18.26,1.84,34.82,3.47,51.36,5.19C291.71,9,327.93,11.9,363.88,16.79a429,429,0,0,0,114.38,0C520.51,11.26,563,7.65,605.42,3.22c10.24-1.06,20.5-2,30.78-3A31.21,31.21,0,0,1,639,3.38a875.39,875.39,0,0,1,80.2,157.26C756.49,256.16,783.9,354.45,803.63,455q18,91.74,27.29,184.73a2111.72,2111.72,0,0,1,10.89,213.53c0,18-6.47,32.9-19.73,45.19-7.4,6.86-16.25,8.61-25.63,9.44-2.32.21-4.67.06-7,.06q-367.89,0-735.78,0a78.63,78.63,0,0,1-11-.4C18.09,904.05.82,883,.12,855.2c-.28-11,0-22,.41-33,1.72-41.28,2.83-82.6,5.65-123.8,4.13-60.16,11.32-120,21-179.55C40.93,433.61,60,349.61,85.62,267.12c19.69-63.36,42.28-125.66,72.2-185C171.9,54.28,188.5,27.68,204.24,0Z"/></g></g></svg>