<svg xmlns="http://www.w3.org/2000/svg" viewBox="0 0 2247.22 1263.46"><g id="Ebene_2" data-name="Ebene 2"><g id="Ebene_1-2" data-name="Ebene 1"><path d="M1122.94,1263.39q-458.33,0-916.65.07c-34.23,0-67.2-5.59-97.35-22.1C38.34,1202.72.55,1143,.35,1062.22-.27,819,.12,575.73.12,332.49c0-44.32-.14-88.63,0-133C.53,107.21,61.93,28.47,151.44,6.12,164.58,2.84,178.36,2,191.88.4c4.93-.59,10-.28,15-.28Q1123.53.11,2040.17,0C2073,0,2104.71,4.92,2134,19.94c66,33.85,103.73,87.71,111.94,161.73a171.45,171.45,0,0,1,1.15,18.94q.09,430.84-.14,861.68c-.11,69.31-29.43,124.84-85.89,165.26-34.06,24.37-72.67,35.54-114.47,35.82-4.33,0-8.66,0-13,0Z"/></g></g></svg>