<svg xmlns="http://www.w3.org/2000/svg" viewBox="0 0 194.04 147.61"><g id="Ebene_2" data-name="Ebene 2"><g id="Ebene_1-2" data-name="Ebene 1"><path d="M96.63,147.51c-12.25.45-22.65-3.73-32.47-9.66-15.65-9.44-27.73-22.63-38.66-37C21.09,95,16.56,89.27,11.83,83.71c-15.32-18-16-44.48-.69-62.36C24.79,5.41,42.55-1.77,63.52.37,72.74,1.31,81.8,3.79,91,5a44.17,44.17,0,0,0,13.67-.45C119.35,1.75,133.84-1.77,149,1.2c21.78,4.26,39.25,20.35,43.87,41.3,3.39,15.4-1,28.87-10.58,41-4.74,6-9.64,11.84-14.26,17.92-10.33,13.59-21.76,26.05-36.28,35.29C120.94,143.56,109.38,148.36,96.63,147.51Z"/></g></g></svg>