<svg xmlns="http://www.w3.org/2000/svg" viewBox="0 0 538.39 521.63"><g id="Ebene_2" data-name="Ebene 2"><g id="Ebene_1-2" data-name="Ebene 1"><path d="M538.39,32.65c-.45,13.46-2.85,24.79-8.63,35.2-3.81,6.86-5.07,6.87-12.88,6.38-11.25-.7-22.74-2-33.79-.58-22.5,3-39.12,15.9-51,34.92-11.35,18.09-17.71,38.11-20.45,59-3.36,25.74-5.32,51.66-8.16,77.47-3.42,31.13-7.82,62.07-17.51,92-12.14,37.52-34.44,67.24-66.94,89.51-28.24,19.35-59.08,33.62-91.09,45.08-41.35,14.79-83.12,28.44-124.9,42-19.43,6.31-39.58,9.8-60.08,6.84a75.22,75.22,0,0,1-23.63-7.23C.82,503.71-4.92,484.19,4.39,465.56c7.27-14.54,19.42-24,34.58-28.39,12-3.48,24.74-5.12,37.27-6.25,49.6-4.5,98.47-12.22,145.29-30,21.89-8.33,42.64-18.83,61.24-33.23,28-21.66,46.75-49.1,51.82-84.68,1.31-9.18,1.26-18.59,1.38-27.9.4-32.71,2.6-65.22,9.64-97.26a270.8,270.8,0,0,1,17.21-53.1C387.48,49.8,429.42,16.1,488.05,3a112.79,112.79,0,0,1,19.71-3c17.7-.73,28.16,8.64,30.14,26.28C538.2,29,538.31,31.63,538.39,32.65Z"/></g></g></svg>